<?xml version="1.0" encoding="UTF-8"?>
<svg version="1.1" xmlns="http://www.w3.org/2000/svg" width="384" height="384">
<path d="M0 0 C3.94772466 3.40175526 7.53792062 7.10415885 11.125 10.875 C12.99773606 12.81464247 14.87736615 14.74752268 16.7578125 16.6796875 C17.65951172 17.60789307 18.56121094 18.53609863 19.49023438 19.49243164 C21.55190709 21.55229939 23.6319278 23.4794509 25.8515625 25.36328125 C29.53256233 28.49835818 32.92930383 31.86690934 36.328125 35.30078125 C36.8893808 35.86756592 37.4506366 36.43435059 38.02890015 37.01831055 C40.36634077 39.38339578 42.69998823 41.7521491 45.02929688 44.12524414 C46.74952271 45.87564521 48.47589812 47.61979215 50.203125 49.36328125 C50.72610168 49.89971756 51.24907837 50.43615387 51.78790283 50.98884583 C55.57006626 54.79685591 58.0330611 56.78145123 63.375 57.375 C70.13502561 56.67568701 74.45128842 51.82808817 78.9921875 47.16796875 C79.54182159 46.61313309 80.09145569 46.05829742 80.65774536 45.48664856 C82.40171311 43.72500891 84.13881294 41.95680564 85.875 40.1875 C105.40632684 20.34150482 105.40632684 20.34150482 113.25 16.625 C114.24515625 16.14289063 115.2403125 15.66078125 116.265625 15.1640625 C123.94313057 11.8956387 131.54419019 12.26224206 139.38816833 14.94038391 C147.3201734 18.15838616 153.3609751 23.94456782 159.24609375 29.98828125 C159.9832814 30.73208542 160.72046906 31.47588959 161.47999573 32.24223328 C163.80647401 34.59190115 166.12243922 36.95158687 168.4375 39.3125 C170.77933999 41.68941833 173.12333842 44.064153 175.46998596 46.43632507 C176.92333483 47.90664476 178.37358674 49.38003341 179.82041931 50.85676575 C180.47192459 51.51802963 181.12342987 52.17929352 181.79467773 52.8605957 C182.36709702 53.44428421 182.9395163 54.02797272 183.52928162 54.62934875 C186.3058737 57.21702254 189.03758134 57.52574192 192.79296875 57.46484375 C197.21381873 56.53372667 199.94989365 53.1423591 203 50 C204.5 48.5 206 47 207.5 45.5 C208.50546875 44.46359375 208.50546875 44.46359375 209.53125 43.40625 C211.52153772 41.46634931 213.537218 39.66599342 215.64672852 37.86206055 C220.0241222 34.04357537 224.07665796 29.9663456 228.12109375 25.80078125 C229.64848311 24.24614974 231.17649683 22.69213144 232.70507812 21.13867188 C235.07854334 18.72194997 237.4479345 16.30174725 239.80688477 13.87084961 C242.10835514 11.50246908 244.42569252 9.15059851 246.74609375 6.80078125 C247.44012802 6.0778035 248.13416229 5.35482574 248.84922791 4.60993958 C254.47463323 -1.04554701 260.33526594 -4.87811962 268.4375 -5.5625 C274.85238114 -5.20362553 280.45468981 -2.61744449 284.9296875 1.984375 C288.89114612 7.32950098 290.45677309 12.37229493 290 19 C288.01154917 26.58777606 284.24717987 31.6034154 278.671875 36.94921875 C277.9640387 37.65093704 277.25620239 38.35265533 276.5269165 39.07563782 C274.2817235 41.29412881 272.01629406 43.49059216 269.75 45.6875 C268.24476344 47.17117761 266.74084504 48.65619378 265.23828125 50.14257812 C254.35305724 60.86404993 254.35305724 60.86404993 248.92993164 65.5480957 C245.18594532 68.79121591 241.70756049 72.22615206 238.26171875 75.78125 C237.01673103 77.04862419 235.77127365 78.31553717 234.52539062 79.58203125 C232.60555926 81.53882481 230.68900623 83.49844691 228.78051758 85.46630859 C207.79950409 107.0660796 207.79950409 107.0660796 192.93554688 107.38061523 C176.4246978 107.3381946 167.35283986 100.52051771 155.91796875 89.078125 C153.33251575 86.47718912 150.75870533 83.86501271 148.1875 81.25 C146.22256586 79.2573432 144.25612637 77.26622988 142.28669739 75.27801514 C141.0695874 74.04875084 139.85515976 72.81682306 138.6438446 71.58184814 C133.65598465 66.17907011 133.65598465 66.17907011 127.0625 63.5546875 C123.12335304 64.12747162 121.84730772 65.35581962 119 68.125 C118.51289551 68.5900293 118.02579102 69.05505859 117.52392578 69.53417969 C113.84364168 73.08415918 110.27239736 76.74467322 106.6796875 80.3828125 C105.71616165 81.35532166 104.7526198 82.32781497 103.7890625 83.30029297 C101.87892465 85.22882816 99.98367992 87.16901735 98.09375 89.11767578 C88.38162457 98.99503257 78.76531406 106.99625847 64.5625 107.9921875 C53.66695119 108.02540564 43.38210643 103.61144865 35.63452148 95.98999023 C34.32439758 94.63920652 33.04399132 93.25978308 31.765625 91.87890625 C29.72307852 89.75269615 27.74923954 87.89219217 25.515625 85.99609375 C18.52763035 79.97079813 12.18256218 73.235903 5.69970703 66.67919922 C-2.95111114 57.91748172 -2.95111114 57.91748172 -12.08203125 49.66455078 C-16.11866482 46.16127078 -19.92858556 42.42192777 -23.75 38.6875 C-24.58660156 37.89666016 -25.42320313 37.10582031 -26.28515625 36.29101562 C-32.0123195 30.66889604 -36.65604258 24.8409173 -37.14526367 16.53320312 C-36.92624442 10.82190452 -34.68249627 6.29624565 -31 2 C-21.17405956 -6.96812024 -11.11104278 -7.18323493 0 0 Z " fill="#2796BC" transform="translate(63,164)"/>
<path d="M0 0 C6.68309026 5.26115616 12.85646042 11.07639905 18.7578125 17.1953125 C20.6803845 19.06275699 22.64995198 20.80628184 24.6796875 22.5546875 C29.68827783 26.9058063 34.29450194 31.61788089 38.9375 36.3515625 C42.83798664 40.29775797 46.83889844 44.03675201 51.04052734 47.66015625 C53.86688624 50.12203489 56.57397215 52.68908083 59.25 55.3125 C59.76111328 55.79460937 60.27222656 56.27671875 60.79882812 56.7734375 C64.93950894 60.84411981 67.29176962 64.8337003 68.37109375 70.6484375 C68.38386916 77.31720378 66.83465402 83.09954246 62.2890625 88.140625 C57.60328774 92.35577609 53.14663678 94.58937544 46.75 94.75 C45.89019531 94.78996094 45.03039062 94.82992187 44.14453125 94.87109375 C34.58266092 93.20562791 28.2528863 87.2825179 21.8125 80.4375 C20.31238809 78.87520728 18.80980574 77.31528268 17.3046875 75.7578125 C16.57467529 75.00121338 15.84466309 74.24461426 15.0925293 73.46508789 C12.47841987 70.85393996 9.71696126 68.46431148 6.91113281 66.06347656 C2.65904175 62.29108701 -1.22114582 58.11330673 -5.15039062 54.00976562 C-10.01697614 49.03913261 -14.45999137 44.75491334 -21.625 43.875 C-28.50354416 44.75045107 -32.15545477 48.09980249 -36.7421875 52.984375 C-38.70898847 54.95779819 -40.71110882 56.76258182 -42.8203125 58.578125 C-47.10875694 62.29484313 -51.09046722 66.26288846 -55.0625 70.3125 C-59.65981786 74.99960922 -64.32196201 79.5102363 -69.29931641 83.79443359 C-70.69158349 84.99314818 -72.05946458 86.22018417 -73.41796875 87.45703125 C-74.32482422 88.28267578 -74.32482422 88.28267578 -75.25 89.125 C-76.16845703 89.96998047 -76.16845703 89.96998047 -77.10546875 90.83203125 C-82.83210693 95.16415874 -89.17291398 95.02027282 -96.0625 94.3125 C-102.29901734 92.57955758 -106.53078251 88.63331122 -110.0625 83.3125 C-112.32375619 78.37885014 -113.04801625 73.58892326 -111.45849609 68.30444336 C-108.72042974 61.55121032 -104.53905543 57.16639186 -99.3125 52.1875 C-98.5390625 51.42824219 -97.765625 50.66898438 -96.96875 49.88671875 C-93.39502942 46.4029408 -89.76336312 43.01779003 -85.984375 39.7578125 C-81.80101649 36.1428338 -77.93228593 32.25786768 -74.0625 28.3125 C-69.48074122 23.64125375 -64.82616581 19.17559159 -59.86621094 14.90673828 C-57.49964088 12.81500811 -55.3496574 10.5505654 -53.1875 8.25 C-38.29508697 -6.75644376 -18.80641774 -10.36271998 0 0 Z " fill="#7CC960" transform="translate(212.0625,106.6875)"/>
<path d="M0 0 C3.94772466 3.40175526 7.53792062 7.10415885 11.125 10.875 C12.99773606 12.81464247 14.87736615 14.74752268 16.7578125 16.6796875 C17.65951172 17.60789307 18.56121094 18.53609863 19.49023438 19.49243164 C21.55190709 21.55229939 23.6319278 23.4794509 25.8515625 25.36328125 C29.53256233 28.49835818 32.92930383 31.86690934 36.328125 35.30078125 C36.8893808 35.86756592 37.4506366 36.43435059 38.02890015 37.01831055 C40.36634077 39.38339578 42.69998823 41.7521491 45.02929688 44.12524414 C46.74952271 45.87564521 48.47589812 47.61979215 50.203125 49.36328125 C50.72610168 49.89971756 51.24907837 50.43615387 51.78790283 50.98884583 C55.57006626 54.79685591 58.0330611 56.78145123 63.375 57.375 C70.13502561 56.67568701 74.45128842 51.82808817 78.9921875 47.16796875 C79.54182159 46.61313309 80.09145569 46.05829742 80.65774536 45.48664856 C82.40171311 43.72500891 84.13881294 41.95680564 85.875 40.1875 C105.40632684 20.34150482 105.40632684 20.34150482 113.25 16.625 C114.24515625 16.14289063 115.2403125 15.66078125 116.265625 15.1640625 C123.94313057 11.8956387 131.54419019 12.26224206 139.38816833 14.94038391 C147.3201734 18.15838616 153.3609751 23.94456782 159.24609375 29.98828125 C159.9832814 30.73208542 160.72046906 31.47588959 161.47999573 32.24223328 C163.80647401 34.59190115 166.12243922 36.95158687 168.4375 39.3125 C170.77933999 41.68941833 173.12333842 44.064153 175.46998596 46.43632507 C176.92333483 47.90664476 178.37358674 49.38003341 179.82041931 50.85676575 C180.47192459 51.51802963 181.12342987 52.17929352 181.79467773 52.8605957 C182.36709702 53.44428421 182.9395163 54.02797272 183.52928162 54.62934875 C186.3058737 57.21702254 189.03758134 57.52574192 192.79296875 57.46484375 C197.21381873 56.53372667 199.94989365 53.1423591 203 50 C204.5 48.5 206 47 207.5 45.5 C208.50546875 44.46359375 208.50546875 44.46359375 209.53125 43.40625 C211.52153772 41.46634931 213.537218 39.66599342 215.64672852 37.86206055 C220.0241222 34.04357537 224.07665796 29.9663456 228.12109375 25.80078125 C229.64848311 24.24614974 231.17649683 22.69213144 232.70507812 21.13867188 C235.07854334 18.72194997 237.4479345 16.30174725 239.80688477 13.87084961 C242.10835514 11.50246908 244.42569252 9.15059851 246.74609375 6.80078125 C247.44012802 6.0778035 248.13416229 5.35482574 248.84922791 4.60993958 C254.47463323 -1.04554701 260.33526594 -4.87811962 268.4375 -5.5625 C274.85238114 -5.20362553 280.45468981 -2.61744449 284.9296875 1.984375 C288.89114612 7.32950098 290.45677309 12.37229493 290 19 C288.01154917 26.58777606 284.24717987 31.6034154 278.671875 36.94921875 C277.9640387 37.65093704 277.25620239 38.35265533 276.5269165 39.07563782 C274.2817235 41.29412881 272.01629406 43.49059216 269.75 45.6875 C268.24476344 47.17117761 266.74084504 48.65619378 265.23828125 50.14257812 C254.35305724 60.86404993 254.35305724 60.86404993 248.92993164 65.5480957 C245.18594532 68.79121591 241.70756049 72.22615206 238.26171875 75.78125 C237.01673103 77.04862419 235.77127365 78.31553717 234.52539062 79.58203125 C232.60555926 81.53882481 230.68900623 83.49844691 228.78051758 85.46630859 C207.79950409 107.0660796 207.79950409 107.0660796 192.93554688 107.38061523 C176.4246978 107.3381946 167.35283986 100.52051771 155.91796875 89.078125 C153.33251575 86.47718912 150.75870533 83.86501271 148.1875 81.25 C146.22256586 79.2573432 144.25612637 77.26622988 142.28669739 75.27801514 C141.0695874 74.04875084 139.85515976 72.81682306 138.6438446 71.58184814 C133.65598465 66.17907011 133.65598465 66.17907011 127.0625 63.5546875 C123.12335304 64.12747162 121.84730772 65.35581962 119 68.125 C118.51289551 68.5900293 118.02579102 69.05505859 117.52392578 69.53417969 C113.84364168 73.08415918 110.27239736 76.74467322 106.6796875 80.3828125 C105.71616165 81.35532166 104.7526198 82.32781497 103.7890625 83.30029297 C101.87892465 85.22882816 99.98367992 87.16901735 98.09375 89.11767578 C88.38162457 98.99503257 78.76531406 106.99625847 64.5625 107.9921875 C53.66695119 108.02540564 43.38210643 103.61144865 35.63452148 95.98999023 C34.32439758 94.63920652 33.04399132 93.25978308 31.765625 91.87890625 C29.72307852 89.75269615 27.74923954 87.89219217 25.515625 85.99609375 C18.52763035 79.97079813 12.18256218 73.235903 5.69970703 66.67919922 C-2.95111114 57.91748172 -2.95111114 57.91748172 -12.08203125 49.66455078 C-16.11866482 46.16127078 -19.92858556 42.42192777 -23.75 38.6875 C-24.58660156 37.89666016 -25.42320313 37.10582031 -26.28515625 36.29101562 C-32.0123195 30.66889604 -36.65604258 24.8409173 -37.14526367 16.53320312 C-36.92624442 10.82190452 -34.68249627 6.29624565 -31 2 C-21.17405956 -6.96812024 -11.11104278 -7.18323493 0 0 Z M-30.4375 5.6875 C-32.96752338 9.43193461 -33.2142665 11.72091877 -33.3125 16.25 C-33.34988281 17.36890625 -33.38726562 18.4878125 -33.42578125 19.640625 C-32.641768 25.82641759 -28.36351271 29.88767606 -24.078125 34.15234375 C-23.61444519 34.61556534 -23.15076538 35.07878693 -22.67303467 35.55604553 C-21.6971552 36.52892491 -20.71886763 37.49939429 -19.73828125 38.4675293 C-18.2624831 39.92517048 -16.79474672 41.39055407 -15.328125 42.85742188 C-11.35835332 46.80679891 -7.3763264 50.69675356 -3.13500977 54.35620117 C0.97094716 57.92306131 4.80278744 61.70799475 8.61328125 65.5859375 C10.04087562 67.02618046 11.46861453 68.46628015 12.89648438 69.90625 C15.10318453 72.13766206 17.3082268 74.37066177 19.51049805 76.60644531 C38.17356941 96.96560791 38.17356941 96.96560791 63.4375 104.5625 C79.96824483 104.36904668 88.59515802 94.45750687 99.63671875 83.33984375 C100.87047241 82.09871826 100.87047241 82.09871826 102.12915039 80.83251953 C103.7506555 79.19531169 105.36609932 77.55207033 106.97436523 75.90185547 C110.91086626 71.90348981 114.93564155 68.05428949 119.2109375 64.41796875 C119.9848584 63.75949951 120.7587793 63.10103027 121.55615234 62.42260742 C124.68177399 60.60312717 126.43256053 60.47975443 130 61 C140.2202847 67.00413057 148.62756603 77.55209096 156.73608398 86.07885742 C166.24713046 96.05088859 175.52380729 104.78508049 190.125 105.3125 C207.34869136 105.05500295 218.96075718 91.42100863 230.0625 80.0625 C232.05714525 78.03249986 234.05403781 76.0047853 236.05381775 73.97984314 C237.28941882 72.72759747 238.52190416 71.47226589 239.75050354 70.21315002 C243.36269479 66.53922172 247.11786391 63.11612848 251.01667786 59.74931335 C254.21175939 56.93121403 257.22387039 53.93855841 260.23828125 50.9296875 C261.20945137 49.96350998 261.20945137 49.96350998 262.20024109 48.97781372 C263.55349445 47.62957835 264.90543783 46.28002692 266.25610352 44.92919922 C268.319635 42.86787263 270.39106409 40.81470382 272.46289062 38.76171875 C273.78434284 37.44319791 275.10532325 36.12420401 276.42578125 34.8046875 C277.04141434 34.19623993 277.65704742 33.58779236 278.29133606 32.96090698 C283.49772755 27.72663723 286.43959237 23.83135098 286.625 16.1875 C286.52507936 11.17043188 286.09932563 8.165032 282.8125 4.3125 C280.91331214 2.49697045 280.91331214 2.49697045 279 1 C277.824375 0.01 277.824375 0.01 276.625 -1 C270.49916512 -3.33365138 265.06939143 -2.29398744 259.05172729 0.01915169 C255.87308693 1.53873182 253.56484738 3.80815415 251.16992188 6.32592773 C250.64515762 6.85638702 250.12039337 7.38684631 249.57972717 7.93338013 C248.45177067 9.07691075 247.32963887 10.22621122 246.21290588 11.38070488 C244.44061445 13.21267674 242.6531378 15.02857101 240.86120605 16.84132385 C237.05982756 20.69280061 233.27932332 24.56439904 229.5 28.4375 C225.11680884 32.92499649 220.72518461 37.40382924 216.31752014 41.86729622 C214.56509875 43.649176 212.82572999 45.44311775 211.08679199 47.23814392 C199.31251134 59.26723981 199.31251134 59.26723981 190.375 60.5 C183.28660297 59.44986711 178.73344097 53.97583394 173.94921875 49.0390625 C172.59712886 47.66654485 171.24491129 46.29415296 169.89257812 44.921875 C167.79039156 42.77633681 165.69077556 40.62835998 163.59399414 38.47753906 C161.55240257 36.38721814 159.50131823 34.3065614 157.44921875 32.2265625 C156.83640549 31.59199127 156.22359222 30.95742004 155.59220886 30.30361938 C147.62255693 22.24530069 138.65143884 16.12383923 127.0625 15.5625 C117.41232546 15.95029681 111.12642901 20.21514952 104.32421875 26.78125 C102 29 102 29 99.51953125 30.96875 C95.10154551 34.53053695 91.27247363 38.73604122 87.3125 42.79296875 C85.54187069 44.59134673 83.77103146 46.38951806 82 48.1875 C80.66582031 49.55938477 80.66582031 49.55938477 79.3046875 50.95898438 C78.44101563 51.83232422 77.57734375 52.70566406 76.6875 53.60546875 C75.90761719 54.40106201 75.12773437 55.19665527 74.32421875 56.01635742 C70.2017076 59.53478212 66.5224468 60.2186985 61.16015625 60.4609375 C55.84047217 59.32581504 51.791069 55.02913057 48.1015625 51.26171875 C47.20953125 50.35873047 46.3175 49.45574219 45.3984375 48.52539062 C44.48320313 47.58888672 43.56796875 46.65238281 42.625 45.6875 C35.59838145 38.44810514 35.59838145 38.44810514 28.1484375 31.65625 C24.50547444 28.54326473 21.16156586 25.19095252 17.8125 21.76953125 C17.2607309 21.20751511 16.70896179 20.64549896 16.14047241 20.06645203 C13.84482002 17.72556602 11.5513863 15.38282169 9.27246094 13.02563477 C7.58676433 11.28507396 5.88830383 9.5578165 4.1875 7.83203125 C3.68516846 7.30591751 3.18283691 6.77980377 2.6652832 6.23774719 C-1.67751642 1.86392378 -6.59916797 -1.28325488 -12.6875 -2.56640625 C-20.45823502 -2.55328001 -25.24221783 -0.04063162 -30.4375 5.6875 Z " fill="#F5FAFA" transform="translate(63,164)"/>
<path d="M0 0 C6.68309026 5.26115616 12.85646042 11.07639905 18.7578125 17.1953125 C20.6803845 19.06275699 22.64995198 20.80628184 24.6796875 22.5546875 C29.68827783 26.9058063 34.29450194 31.61788089 38.9375 36.3515625 C42.83798664 40.29775797 46.83889844 44.03675201 51.04052734 47.66015625 C53.86688624 50.12203489 56.57397215 52.68908083 59.25 55.3125 C59.76111328 55.79460937 60.27222656 56.27671875 60.79882812 56.7734375 C64.93950894 60.84411981 67.29176962 64.8337003 68.37109375 70.6484375 C68.38386916 77.31720378 66.83465402 83.09954246 62.2890625 88.140625 C57.60328774 92.35577609 53.14663678 94.58937544 46.75 94.75 C45.89019531 94.78996094 45.03039062 94.82992187 44.14453125 94.87109375 C34.58266092 93.20562791 28.2528863 87.2825179 21.8125 80.4375 C20.31238809 78.87520728 18.80980574 77.31528268 17.3046875 75.7578125 C16.57467529 75.00121338 15.84466309 74.24461426 15.0925293 73.46508789 C12.47841987 70.85393996 9.71696126 68.46431148 6.91113281 66.06347656 C2.65904175 62.29108701 -1.22114582 58.11330673 -5.15039062 54.00976562 C-10.01697614 49.03913261 -14.45999137 44.75491334 -21.625 43.875 C-28.50354416 44.75045107 -32.15545477 48.09980249 -36.7421875 52.984375 C-38.70898847 54.95779819 -40.71110882 56.76258182 -42.8203125 58.578125 C-47.10875694 62.29484313 -51.09046722 66.26288846 -55.0625 70.3125 C-59.65981786 74.99960922 -64.32196201 79.5102363 -69.29931641 83.79443359 C-70.69158349 84.99314818 -72.05946458 86.22018417 -73.41796875 87.45703125 C-74.32482422 88.28267578 -74.32482422 88.28267578 -75.25 89.125 C-76.16845703 89.96998047 -76.16845703 89.96998047 -77.10546875 90.83203125 C-82.83210693 95.16415874 -89.17291398 95.02027282 -96.0625 94.3125 C-102.29901734 92.57955758 -106.53078251 88.63331122 -110.0625 83.3125 C-112.32375619 78.37885014 -113.04801625 73.58892326 -111.45849609 68.30444336 C-108.72042974 61.55121032 -104.53905543 57.16639186 -99.3125 52.1875 C-98.5390625 51.42824219 -97.765625 50.66898438 -96.96875 49.88671875 C-93.39502942 46.4029408 -89.76336312 43.01779003 -85.984375 39.7578125 C-81.80101649 36.1428338 -77.93228593 32.25786768 -74.0625 28.3125 C-69.48074122 23.64125375 -64.82616581 19.17559159 -59.86621094 14.90673828 C-57.49964088 12.81500811 -55.3496574 10.5505654 -53.1875 8.25 C-38.29508697 -6.75644376 -18.80641774 -10.36271998 0 0 Z M-58.39038086 17.60766602 C-61.15462459 20.41998355 -63.9170349 23.14636958 -66.9375 25.6875 C-71.04408762 29.16499335 -74.77902193 32.99219976 -78.5625 36.8125 C-86.4241548 44.75066726 -86.4241548 44.75066726 -90.1875 47.9375 C-93.92635326 51.11387091 -97.43767624 54.50247014 -100.9375 57.9375 C-101.51000488 58.48873535 -102.08250977 59.0399707 -102.67236328 59.60791016 C-106.94710362 63.84684651 -108.83480874 66.9976389 -109.4375 73.125 C-109.24582474 78.77942026 -107.15533233 82.94800193 -103.4375 87.1484375 C-98.6182872 91.42548886 -94.29649169 92.12821218 -87.94921875 91.75390625 C-80.02125463 90.54164651 -75.67931691 86.27079935 -70.26953125 80.59375 C-68.33712103 78.59635608 -66.37060491 76.79131843 -64.25 75 C-60.10935826 71.45442054 -56.32136 67.59948588 -52.49389648 63.72436523 C-49.10080523 60.30546692 -45.60771283 57.08209924 -41.9296875 53.96875 C-39.8195348 52.09698275 -37.89077092 50.09685009 -35.9375 48.0625 C-31.6374276 43.7456958 -28.36335058 41.57227345 -22.1875 40.875 C-11.56523907 41.43956409 -4.92749644 50.00256619 1.9375 57.125 C4.01648987 59.26077709 6.10112237 61.39097277 8.1875 63.51953125 C8.68823029 64.03212494 9.18896057 64.54471863 9.7048645 65.07284546 C13.06468249 68.49090409 16.54455451 71.68748071 20.19433594 74.78979492 C23.51415259 77.68975241 26.51384731 80.91936718 29.53515625 84.125 C33.54444672 88.25127242 37.15618427 90.9431065 42.9375 91.7109375 C50.901698 91.72278989 50.901698 91.72278989 57.9375 88.3125 C62.73009431 83.30206049 64.96556581 79.36926438 65.4375 72.5 C65.26995953 66.52145052 62.96810502 63.53651217 58.9375 59.3125 C58.09058594 58.42304688 57.24367188 57.53359375 56.37109375 56.6171875 C52.4193534 52.5565002 48.3770204 48.67154036 44.0859375 44.97265625 C39.11363663 40.65584314 34.5455596 35.97149827 29.9375 31.2734375 C26.03132528 27.32148729 22.01873209 23.59405647 17.80810547 19.96923828 C15.05820907 17.53373881 12.54245476 14.89786405 10 12.25 C0.57801357 2.682397 -8.28636421 -2.89948335 -22 -3.125 C-38.20102251 -2.97157768 -47.62326484 6.65222195 -58.39038086 17.60766602 Z " fill="#F9FCF7" transform="translate(212.0625,106.6875)"/>
<path d="M0 0 C3.625 1.5 3.625 1.5 6 3 C3.41274699 4.2936265 2.60506972 3.73178858 -0.125 2.9375 C-4.90000578 1.83557559 -8.56164825 1.76732001 -13 4 C-16.65586966 6.88509636 -19.51281775 9.53845326 -21 14 C-21.32951714 19.08813236 -21.02563831 24.00001322 -20 29 C-23.94046747 24.71461097 -23.48889484 20.71116333 -23.3515625 15.13671875 C-22.74886277 9.75929786 -20.38853608 7.24968247 -16.5 3.75 C-10.98399246 -0.11120528 -6.67872272 -0.72457841 0 0 Z " fill="#4CBAA9" transform="translate(53,162)"/>
<path d="M0 0 C0 3.69475245 -1.21104494 4.57943928 -3.70904541 7.12588501 C-4.24334167 7.65410858 -4.77763794 8.18233215 -5.328125 8.7265625 C-6.14624664 9.54898941 -6.14624664 9.54898941 -6.980896 10.38803101 C-8.13738359 11.54656128 -9.29767314 12.70130679 -10.46142578 13.85253906 C-12.23957079 15.61466475 -14.00120961 17.39214956 -15.76171875 19.171875 C-16.88706047 20.29523372 -18.01333275 21.41766116 -19.140625 22.5390625 C-19.66682434 23.07133453 -20.19302368 23.60360657 -20.73516846 24.15200806 C-25.31139544 28.64172251 -25.31139544 28.64172251 -29 29 C-23.15659435 22.01641764 -16.96426886 15.78320117 -10.06640625 9.84375 C-6.56017716 6.71531875 -3.28207479 3.36063509 0 0 Z " fill="#39ABB5" transform="translate(172,186)"/>
<path d="M0 0 C3.15282724 1.42089299 5.53777964 3.15031851 8.125 5.4375 C8.80820313 6.03433594 9.49140625 6.63117188 10.1953125 7.24609375 C12 9 12 9 14 12 C14.99 12.33 15.98 12.66 17 13 C18.81781867 14.60807036 19.9107426 15.8214852 21 18 C22.65919896 18.36871088 24.32774271 18.69595322 26 19 C27.6792238 19.63437344 29.35008418 20.29289322 31 21 C31 21.33 31 21.66 31 22 C25.71300402 22.83478884 22.35360877 21.06757169 18.01171875 18.328125 C11.47824268 13.27760394 5.43240613 7.22168358 0 1 C0 0.67 0 0.34 0 0 Z " fill="#2773A7" transform="translate(216,245)"/>
<path d="M0 0 C2.0345475 1.66757341 2.91704092 2.57922555 3.43359375 5.19921875 C3.44319167 11.31309564 2.5847854 15.94981246 -1 21 C-3.25 23 -3.25 23 -5 24 C-4.34 22.35 -3.68 20.7 -3 19 C-2.34 19 -1.68 19 -1 19 C0.84992259 12.2940306 1.61934257 6.88220594 0 0 Z " fill="#69BC88" transform="translate(274,171)"/>
<path d="M0 0 C0.99 0.33 1.98 0.66 3 1 C3.33 1.99 3.66 2.98 4 4 C8.42678576 6.59128922 13.19221576 8.25925053 18 10 C18 10.33 18 10.66 18 11 C12.35332181 11.89158077 8.91521981 9.5290738 4.26953125 6.703125 C1.99718443 4.99788711 0.5692116 3.35126168 -1 1 C-0.67 0.67 -0.34 0.34 0 0 Z " fill="#256EA5" transform="translate(102,256)"/>
<path d="M0 0 C0.66 0 1.32 0 2 0 C2.33 0.66 2.66 1.32 3 2 C3.825 2.28875 4.65 2.5775 5.5 2.875 C6.325 3.24625 7.15 3.6175 8 4 C8.625 5.9375 8.625 5.9375 9 8 C10.47890069 9.73026102 10.47890069 9.73026102 12 11 C11.67 11.66 11.34 12.32 11 13 C9.16052663 11.21427748 7.32842259 9.42197551 5.5 7.625 C4.71302734 6.86316406 4.71302734 6.86316406 3.91015625 6.0859375 C2.56846819 4.76167396 1.28004185 3.38394135 0 2 C0 1.34 0 0.68 0 0 Z " fill="#348BB6" transform="translate(79,235)"/>
<path d="M0 0 C0.99 0.33 1.98 0.66 3 1 C1.92643323 2.15498897 0.84070212 3.29867867 -0.25 4.4375 C-0.85328125 5.07558594 -1.4565625 5.71367187 -2.078125 6.37109375 C-4.10048016 8.08516306 -5.41270605 8.59358878 -8 9 C-7.04270084 7.87411986 -6.08412105 6.7493285 -5.125 5.625 C-4.59132812 4.99851563 -4.05765625 4.37203125 -3.5078125 3.7265625 C-2.38567993 2.44163349 -1.20628025 1.20628025 0 0 Z " fill="#3CA4BD" transform="translate(151,206)"/>
<path d="M0 0 C0.66 0.66 1.32 1.32 2 2 C-0.31 4.31 -2.62 6.62 -5 9 C-5.33 8.01 -5.66 7.02 -6 6 C-5.01 5.67 -4.02 5.34 -3 5 C-1.8499169 3.03327085 -1.8499169 3.03327085 -1 1 C-0.67 0.67 -0.34 0.34 0 0 Z " fill="#38A3C2" transform="translate(344,190)"/>
<path d="M0 0 C3.55780196 0.60990891 6.6828589 1.5783681 10 3 C10 3.33 10 3.66 10 4 C6.05272412 4.17942163 3.4019487 4.09350689 0 2 C0 1.34 0 0.68 0 0 Z " fill="#236AA3" transform="translate(237,263)"/>
</svg>
